<?xml version="1.0" encoding="us-ascii" standalone="no"?><svg xmlns="http://www.w3.org/2000/svg" xmlns:xlink="http://www.w3.org/1999/xlink" contentStyleType="text/css" height="638px" preserveAspectRatio="none" style="width:1195px;height:638px;background:#FFFFFF;" version="1.1" viewBox="0 0 1195 638" width="1195px" zoomAndPan="magnify"><defs/><g><rect fill="#FFFFFF" height="59.1328" style="stroke:#181818;stroke-width:1.0;" width="10" x="192.5" y="112.4297"/><rect fill="#FFFFFF" height="406.1328" style="stroke:#181818;stroke-width:1.0;" width="10" x="341.5" y="141.5625"/><rect fill="#FFFFFF" height="29.1328" style="stroke:#181818;stroke-width:1.0;" width="10" x="514.5" y="200.6953"/><rect fill="#FFFFFF" height="59.1328" style="stroke:#181818;stroke-width:1.0;" width="10" x="680.5" y="283.0938"/><rect fill="#FFFFFF" height="59.1328" style="stroke:#181818;stroke-width:1.0;" width="10" x="849" y="444.4297"/><rect fill="#FFFFFF" height="88.2656" style="stroke:#181818;stroke-width:1.0;" width="10" x="986.5" y="312.2266"/><rect fill="#FFFFFF" height="59.1328" style="stroke:#181818;stroke-width:1.0;" width="10" x="986.5" y="473.5625"/><rect fill="none" height="295.8672" style="stroke:#000000;stroke-width:1.5;" width="1178" x="10" y="244.8281"/><line style="stroke:#181818;stroke-width:0.5;stroke-dasharray:5.0,5.0;" x1="70" x2="70" y1="81.2969" y2="557.6953"/><line style="stroke:#181818;stroke-width:0.5;stroke-dasharray:5.0,5.0;" x1="197" x2="197" y1="81.2969" y2="557.6953"/><line style="stroke:#181818;stroke-width:0.5;stroke-dasharray:5.0,5.0;" x1="346" x2="346" y1="81.2969" y2="557.6953"/><line style="stroke:#181818;stroke-width:0.5;stroke-dasharray:5.0,5.0;" x1="519.5" x2="519.5" y1="81.2969" y2="557.6953"/><line style="stroke:#181818;stroke-width:0.5;stroke-dasharray:5.0,5.0;" x1="685.5" x2="685.5" y1="81.2969" y2="557.6953"/><line style="stroke:#181818;stroke-width:0.5;stroke-dasharray:5.0,5.0;" x1="853.5" x2="853.5" y1="81.2969" y2="557.6953"/><line style="stroke:#181818;stroke-width:0.5;stroke-dasharray:5.0,5.0;" x1="991.5" x2="991.5" y1="81.2969" y2="557.6953"/><line style="stroke:#181818;stroke-width:0.5;stroke-dasharray:5.0,5.0;" x1="1129" x2="1129" y1="81.2969" y2="557.6953"/><text fill="#000000" font-family="sans-serif" font-size="14" lengthAdjust="spacing" textLength="95" x="20" y="77.9951">Sender (user)</text><ellipse cx="70.5" cy="13.5" fill="#E2E2F0" rx="8" ry="8" style="stroke:#181818;stroke-width:0.5;"/><path d="M70.5,21.5 L70.5,48.5 M57.5,29.5 L83.5,29.5 M70.5,48.5 L57.5,63.5 M70.5,48.5 L83.5,63.5 " fill="none" style="stroke:#181818;stroke-width:0.5;"/><text fill="#000000" font-family="sans-serif" font-size="14" lengthAdjust="spacing" textLength="95" x="20" y="569.6904">Sender (user)</text><ellipse cx="70.5" cy="581.4922" fill="#E2E2F0" rx="8" ry="8" style="stroke:#181818;stroke-width:0.5;"/><path d="M70.5,589.4922 L70.5,616.4922 M57.5,597.4922 L83.5,597.4922 M70.5,616.4922 L57.5,631.4922 M70.5,616.4922 L83.5,631.4922 " fill="none" style="stroke:#181818;stroke-width:0.5;"/><rect fill="#E2E2F0" height="30.2969" rx="2.5" ry="2.5" style="stroke:#181818;stroke-width:0.5;" width="71" x="162" y="50"/><text fill="#000000" font-family="sans-serif" font-size="14" lengthAdjust="spacing" textLength="57" x="169" y="69.9951">Browser</text><rect fill="#E2E2F0" height="30.2969" rx="2.5" ry="2.5" style="stroke:#181818;stroke-width:0.5;" width="71" x="162" y="556.6953"/><text fill="#000000" font-family="sans-serif" font-size="14" lengthAdjust="spacing" textLength="57" x="169" y="576.6904">Browser</text><rect fill="#E2E2F0" height="30.2969" rx="2.5" ry="2.5" style="stroke:#181818;stroke-width:0.5;" width="59" x="317" y="50"/><text fill="#000000" font-family="sans-serif" font-size="14" lengthAdjust="spacing" textLength="45" x="324" y="69.9951">CB API</text><rect fill="#E2E2F0" height="30.2969" rx="2.5" ry="2.5" style="stroke:#181818;stroke-width:0.5;" width="59" x="317" y="556.6953"/><text fill="#000000" font-family="sans-serif" font-size="14" lengthAdjust="spacing" textLength="45" x="324" y="576.6904">CB API</text><rect fill="#E2E2F0" height="30.2969" rx="2.5" ry="2.5" style="stroke:#181818;stroke-width:0.5;" width="140" x="449.5" y="50"/><text fill="#000000" font-family="sans-serif" font-size="14" lengthAdjust="spacing" textLength="126" x="456.5" y="69.9951">TensorFlow Model</text><rect fill="#E2E2F0" height="30.2969" rx="2.5" ry="2.5" style="stroke:#181818;stroke-width:0.5;" width="140" x="449.5" y="556.6953"/><text fill="#000000" font-family="sans-serif" font-size="14" lengthAdjust="spacing" textLength="126" x="456.5" y="576.6904">TensorFlow Model</text><text fill="#000000" font-family="sans-serif" font-size="14" lengthAdjust="spacing" textLength="166" x="599.5" y="77.9951">Important Messages DB</text><path d="M667.5,29 C667.5,19 685.5,19 685.5,19 C685.5,19 703.5,19 703.5,29 L703.5,55 C703.5,65 685.5,65 685.5,65 C685.5,65 667.5,65 667.5,55 L667.5,29 " fill="#E2E2F0" style="stroke:#181818;stroke-width:1.5;"/><path d="M667.5,29 C667.5,39 685.5,39 685.5,39 C685.5,39 703.5,39 703.5,29 " fill="none" style="stroke:#181818;stroke-width:1.5;"/><text fill="#000000" font-family="sans-serif" font-size="14" lengthAdjust="spacing" textLength="166" x="599.5" y="569.6904">Important Messages DB</text><path d="M667.5,582.9922 C667.5,572.9922 685.5,572.9922 685.5,572.9922 C685.5,572.9922 703.5,572.9922 703.5,582.9922 L703.5,608.9922 C703.5,618.9922 685.5,618.9922 685.5,618.9922 C685.5,618.9922 667.5,618.9922 667.5,608.9922 L667.5,582.9922 " fill="#E2E2F0" style="stroke:#181818;stroke-width:1.5;"/><path d="M667.5,582.9922 C667.5,592.9922 685.5,592.9922 685.5,592.9922 C685.5,592.9922 703.5,592.9922 703.5,582.9922 " fill="none" style="stroke:#181818;stroke-width:1.5;"/><text fill="#000000" font-family="sans-serif" font-size="14" lengthAdjust="spacing" textLength="139" x="781.5" y="77.9951">Spam Messages DB</text><path d="M836,29 C836,19 854,19 854,19 C854,19 872,19 872,29 L872,55 C872,65 854,65 854,65 C854,65 836,65 836,55 L836,29 " fill="#E2E2F0" style="stroke:#181818;stroke-width:1.5;"/><path d="M836,29 C836,39 854,39 854,39 C854,39 872,39 872,29 " fill="none" style="stroke:#181818;stroke-width:1.5;"/><text fill="#000000" font-family="sans-serif" font-size="14" lengthAdjust="spacing" textLength="139" x="781.5" y="569.6904">Spam Messages DB</text><path d="M836,582.9922 C836,572.9922 854,572.9922 854,572.9922 C854,572.9922 872,572.9922 872,582.9922 L872,608.9922 C872,618.9922 854,618.9922 854,618.9922 C854,618.9922 836,618.9922 836,608.9922 L836,582.9922 " fill="#E2E2F0" style="stroke:#181818;stroke-width:1.5;"/><path d="M836,582.9922 C836,592.9922 854,592.9922 854,592.9922 C854,592.9922 872,592.9922 872,582.9922 " fill="none" style="stroke:#181818;stroke-width:1.5;"/><rect fill="#E2E2F0" height="30.2969" rx="2.5" ry="2.5" style="stroke:#181818;stroke-width:0.5;" width="110" x="936.5" y="50"/><text fill="#000000" font-family="sans-serif" font-size="14" lengthAdjust="spacing" textLength="96" x="943.5" y="69.9951">Email Provider</text><rect fill="#E2E2F0" height="30.2969" rx="2.5" ry="2.5" style="stroke:#181818;stroke-width:0.5;" width="110" x="936.5" y="556.6953"/><text fill="#000000" font-family="sans-serif" font-size="14" lengthAdjust="spacing" textLength="96" x="943.5" y="576.6904">Email Provider</text><text fill="#000000" font-family="sans-serif" font-size="14" lengthAdjust="spacing" textLength="91" x="1081" y="77.9951">Administrator</text><ellipse cx="1129.5" cy="13.5" fill="#E2E2F0" rx="8" ry="8" style="stroke:#181818;stroke-width:0.5;"/><path d="M1129.5,21.5 L1129.5,48.5 M1116.5,29.5 L1142.5,29.5 M1129.5,48.5 L1116.5,63.5 M1129.5,48.5 L1142.5,63.5 " fill="none" style="stroke:#181818;stroke-width:0.5;"/><text fill="#000000" font-family="sans-serif" font-size="14" lengthAdjust="spacing" textLength="91" x="1081" y="569.6904">Administrator</text><ellipse cx="1129.5" cy="581.4922" fill="#E2E2F0" rx="8" ry="8" style="stroke:#181818;stroke-width:0.5;"/><path d="M1129.5,589.4922 L1129.5,616.4922 M1116.5,597.4922 L1142.5,597.4922 M1129.5,616.4922 L1116.5,631.4922 M1129.5,616.4922 L1142.5,631.4922 " fill="none" style="stroke:#181818;stroke-width:0.5;"/><rect fill="#FFFFFF" height="59.1328" style="stroke:#181818;stroke-width:1.0;" width="10" x="192.5" y="112.4297"/><rect fill="#FFFFFF" height="406.1328" style="stroke:#181818;stroke-width:1.0;" width="10" x="341.5" y="141.5625"/><rect fill="#FFFFFF" height="29.1328" style="stroke:#181818;stroke-width:1.0;" width="10" x="514.5" y="200.6953"/><rect fill="#FFFFFF" height="59.1328" style="stroke:#181818;stroke-width:1.0;" width="10" x="680.5" y="283.0938"/><rect fill="#FFFFFF" height="59.1328" style="stroke:#181818;stroke-width:1.0;" width="10" x="849" y="444.4297"/><rect fill="#FFFFFF" height="88.2656" style="stroke:#181818;stroke-width:1.0;" width="10" x="986.5" y="312.2266"/><rect fill="#FFFFFF" height="59.1328" style="stroke:#181818;stroke-width:1.0;" width="10" x="986.5" y="473.5625"/><polygon fill="#181818" points="180.5,108.4297,190.5,112.4297,180.5,116.4297,184.5,112.4297" style="stroke:#181818;stroke-width:1.0;"/><line style="stroke:#181818;stroke-width:1.0;" x1="70.5" x2="186.5" y1="112.4297" y2="112.4297"/><text fill="#000000" font-family="sans-serif" font-size="13" lengthAdjust="spacing" textLength="103" x="77.5" y="107.3638">Sends message</text><polygon fill="#181818" points="329.5,137.5625,339.5,141.5625,329.5,145.5625,333.5,141.5625" style="stroke:#181818;stroke-width:1.0;"/><line style="stroke:#181818;stroke-width:1.0;" x1="202.5" x2="335.5" y1="141.5625" y2="141.5625"/><text fill="#000000" font-family="sans-serif" font-size="13" lengthAdjust="spacing" textLength="120" x="209.5" y="136.4966">Forwards message</text><polygon fill="#181818" points="502.5,196.6953,512.5,200.6953,502.5,204.6953,506.5,200.6953" style="stroke:#181818;stroke-width:1.0;"/><line style="stroke:#181818;stroke-width:1.0;" x1="351.5" x2="508.5" y1="200.6953" y2="200.6953"/><text fill="#000000" font-family="sans-serif" font-size="13" lengthAdjust="spacing" textLength="120" x="358.5" y="195.6294">Analyzes message</text><polygon fill="#181818" points="362.5,225.8281,352.5,229.8281,362.5,233.8281,358.5,229.8281" style="stroke:#181818;stroke-width:1.0;"/><line style="stroke:#181818;stroke-width:1.0;" x1="356.5" x2="518.5" y1="229.8281" y2="229.8281"/><text fill="#000000" font-family="sans-serif" font-size="13" lengthAdjust="spacing" textLength="139" x="368.5" y="224.7622">Result (spam or ham)</text><path d="M10,244.8281 L74,244.8281 L74,251.9609 L64,261.9609 L10,261.9609 L10,244.8281 " fill="#EEEEEE" style="stroke:#000000;stroke-width:1.5;"/><rect fill="none" height="295.8672" style="stroke:#000000;stroke-width:1.5;" width="1178" x="10" y="244.8281"/><text fill="#000000" font-family="sans-serif" font-size="13" font-weight="bold" lengthAdjust="spacing" textLength="19" x="25" y="257.895">alt</text><text fill="#000000" font-family="sans-serif" font-size="11" font-weight="bold" lengthAdjust="spacing" textLength="126" x="89" y="257.0386">[If message is ham]</text><polygon fill="#181818" points="668.5,279.0938,678.5,283.0938,668.5,287.0938,672.5,283.0938" style="stroke:#181818;stroke-width:1.0;"/><line style="stroke:#181818;stroke-width:1.0;" x1="351.5" x2="674.5" y1="283.0938" y2="283.0938"/><text fill="#000000" font-family="sans-serif" font-size="13" lengthAdjust="spacing" textLength="102" x="358.5" y="278.0278">Saves message</text><polygon fill="#181818" points="974.5,308.2266,984.5,312.2266,974.5,316.2266,978.5,312.2266" style="stroke:#181818;stroke-width:1.0;"/><line style="stroke:#181818;stroke-width:1.0;" x1="351.5" x2="980.5" y1="312.2266" y2="312.2266"/><text fill="#000000" font-family="sans-serif" font-size="13" lengthAdjust="spacing" textLength="175" x="358.5" y="307.1606">Email to Sender and Admin</text><polygon fill="#181818" points="81.5,367.3594,71.5,371.3594,81.5,375.3594,77.5,371.3594" style="stroke:#181818;stroke-width:1.0;"/><line style="stroke:#181818;stroke-width:1.0;" x1="75.5" x2="985.5" y1="371.3594" y2="371.3594"/><text fill="#000000" font-family="sans-serif" font-size="13" lengthAdjust="spacing" textLength="109" x="87.5" y="366.2935">Email notification</text><polygon fill="#181818" points="1117.5,396.4922,1127.5,400.4922,1117.5,404.4922,1121.5,400.4922" style="stroke:#181818;stroke-width:1.0;"/><line style="stroke:#181818;stroke-width:1.0;" x1="991.5" x2="1123.5" y1="400.4922" y2="400.4922"/><text fill="#000000" font-family="sans-serif" font-size="13" lengthAdjust="spacing" textLength="109" x="998.5" y="395.4263">Email notification</text><line style="stroke:#000000;stroke-width:1.0;stroke-dasharray:2.0,2.0;" x1="10" x2="1188" y1="409.4922" y2="409.4922"/><text fill="#000000" font-family="sans-serif" font-size="11" font-weight="bold" lengthAdjust="spacing" textLength="133" x="15" y="419.7026">[If message is spam]</text><polygon fill="#181818" points="837,440.4297,847,444.4297,837,448.4297,841,444.4297" style="stroke:#181818;stroke-width:1.0;"/><line style="stroke:#181818;stroke-width:1.0;" x1="351.5" x2="843" y1="444.4297" y2="444.4297"/><text fill="#000000" font-family="sans-serif" font-size="13" lengthAdjust="spacing" textLength="102" x="358.5" y="439.3638">Saves message</text><polygon fill="#181818" points="974.5,469.5625,984.5,473.5625,974.5,477.5625,978.5,473.5625" style="stroke:#181818;stroke-width:1.0;"/><line style="stroke:#181818;stroke-width:1.0;" x1="351.5" x2="980.5" y1="473.5625" y2="473.5625"/><text fill="#000000" font-family="sans-serif" font-size="13" lengthAdjust="spacing" textLength="102" x="358.5" y="468.4966">Email to Sender</text><polygon fill="#181818" points="81.5,528.6953,71.5,532.6953,81.5,536.6953,77.5,532.6953" style="stroke:#181818;stroke-width:1.0;"/><line style="stroke:#181818;stroke-width:1.0;" x1="75.5" x2="990.5" y1="532.6953" y2="532.6953"/><text fill="#000000" font-family="sans-serif" font-size="13" lengthAdjust="spacing" textLength="109" x="87.5" y="527.6294">Email notification</text><!--SRC=[bPB1Ri8m38RlUGgh9pZi1NP0ecD8FI2XiHVmYDaYjKcL111x-ZbDMYK3fj5BM_ltR-UBSU-DXMf7MfA5sT6HdLU03c94z6YzsgiUjOUgjkRCWY6Vlal1ImtBRJFa-LtctaaxOzUjESF6I6gZgjbTdATEIFJuWOwWQhhUM1zADkGSVfA3LJs8fyogplIx7hihQGYogXZWjKFLmjQQavBf44DeZ0YCB9QoKrevRv5_uvGX8aI2zBGO3m_F0oO7NMmV7DG9FKrqHY7NC13MhuqzexrL4e19kd8GeIwK9rBiiTJONhxfbiU8Sr9FZT_87LiFCnTmyJ6_i9ld_QPIWInh3gCvA1Uq0lX9esJt40ZWAHibo2RF_CAo-e8wEyIByIRj7A2M2NdXLbvMI6NZ_svLzk2coNliferN1xL7huo-NJ1CS5-VzIu7evQtikGNcES0udR-pIvjyF-nFG0hytwOq_rpQocAXTesFm00]--></g></svg>